<svg xmlns="http://www.w3.org/2000/svg" version="1.1" xmlns:xlink="http://www.w3.org/1999/xlink" xmlns:svgjs="http://svgjs.dev/svgjs" width="1440" height="560" preserveAspectRatio="none" viewBox="0 0 1440 560"><g mask="url(&quot;#SvgjsMask1001&quot;)" fill="none"><path d="M159.88 203.35L224.83 240.85L224.83 315.85L159.88 353.35L94.92 315.85L94.92 240.85zM224.83 315.85L289.78 353.35L289.78 428.35L224.83 465.85L159.88 428.35L159.88 353.35zM224.83 540.85L289.78 578.35L289.78 653.35L224.83 690.85L159.88 653.35L159.88 578.35zM289.78 -21.65L354.74 15.85L354.74 90.85L289.78 128.35L224.83 90.85L224.83 15.85zM419.69 -21.65L484.65 15.85L484.65 90.85L419.69 128.35L354.74 90.85L354.74 15.85zM419.69 203.35L484.65 240.85L484.65 315.85L419.69 353.35L354.74 315.85L354.74 240.85zM549.6 203.35L614.55 240.85L614.55 315.85L549.6 353.35L484.65 315.85L484.65 240.85zM614.55 540.85L679.51 578.35L679.51 653.35L614.55 690.85L549.6 653.35L549.6 578.35zM744.46 540.85L809.42 578.35L809.42 653.35L744.46 690.85L679.51 653.35L679.51 578.35zM809.41 203.35L874.37 240.85L874.37 315.85L809.41 353.35L744.46 315.85L744.46 240.85zM874.37 540.85L939.32 578.35L939.32 653.35L874.37 690.85L809.41 653.35L809.41 578.35zM939.32 -21.65L1004.28 15.85L1004.28 90.85L939.32 128.35L874.37 90.85L874.37 15.85zM1004.28 315.85L1069.23 353.35L1069.23 428.35L1004.28 465.85L939.32 428.35L939.32 353.35zM1134.18 90.85L1199.14 128.35L1199.14 203.35L1134.18 240.85L1069.23 203.35L1069.23 128.35zM1069.23 203.35L1134.18 240.85L1134.18 315.85L1069.23 353.35L1004.28 315.85L1004.28 240.85zM1199.14 -21.65L1264.09 15.85L1264.09 90.85L1199.14 128.35L1134.18 90.85L1134.18 15.85zM1264.09 90.85L1329.04 128.35L1329.04 203.35L1264.09 240.85L1199.14 203.35L1199.14 128.35zM1329.05 203.35L1394 240.85L1394 315.85L1329.05 353.35L1264.09 315.85L1264.09 240.85zM1329.05 428.35L1394 465.85L1394 540.85L1329.05 578.35L1264.09 540.85L1264.09 465.85zM1523.91 90.85L1588.86 128.35L1588.86 203.35L1523.91 240.85L1458.95 203.35L1458.95 128.35z" stroke="#2e8894" stroke-width="1"></path><path d="M152.38 203.35 a7.5 7.5 0 1 0 15 0 a7.5 7.5 0 1 0 -15 0zM217.33 240.85 a7.5 7.5 0 1 0 15 0 a7.5 7.5 0 1 0 -15 0zM217.33 315.85 a7.5 7.5 0 1 0 15 0 a7.5 7.5 0 1 0 -15 0zM152.38 353.35 a7.5 7.5 0 1 0 15 0 a7.5 7.5 0 1 0 -15 0zM87.42 315.85 a7.5 7.5 0 1 0 15 0 a7.5 7.5 0 1 0 -15 0zM87.42 240.85 a7.5 7.5 0 1 0 15 0 a7.5 7.5 0 1 0 -15 0zM282.28 353.35 a7.5 7.5 0 1 0 15 0 a7.5 7.5 0 1 0 -15 0zM282.28 428.35 a7.5 7.5 0 1 0 15 0 a7.5 7.5 0 1 0 -15 0zM217.33 465.85 a7.5 7.5 0 1 0 15 0 a7.5 7.5 0 1 0 -15 0zM152.38 428.35 a7.5 7.5 0 1 0 15 0 a7.5 7.5 0 1 0 -15 0zM217.33 540.85 a7.5 7.5 0 1 0 15 0 a7.5 7.5 0 1 0 -15 0zM282.28 578.35 a7.5 7.5 0 1 0 15 0 a7.5 7.5 0 1 0 -15 0zM282.28 653.35 a7.5 7.5 0 1 0 15 0 a7.5 7.5 0 1 0 -15 0zM217.33 690.85 a7.5 7.5 0 1 0 15 0 a7.5 7.5 0 1 0 -15 0zM152.38 653.35 a7.5 7.5 0 1 0 15 0 a7.5 7.5 0 1 0 -15 0zM152.38 578.35 a7.5 7.5 0 1 0 15 0 a7.5 7.5 0 1 0 -15 0zM282.28 -21.65 a7.5 7.5 0 1 0 15 0 a7.5 7.5 0 1 0 -15 0zM347.24 15.85 a7.5 7.5 0 1 0 15 0 a7.5 7.5 0 1 0 -15 0zM347.24 90.85 a7.5 7.5 0 1 0 15 0 a7.5 7.5 0 1 0 -15 0zM282.28 128.35 a7.5 7.5 0 1 0 15 0 a7.5 7.5 0 1 0 -15 0zM217.33 90.85 a7.5 7.5 0 1 0 15 0 a7.5 7.5 0 1 0 -15 0zM217.33 15.85 a7.5 7.5 0 1 0 15 0 a7.5 7.5 0 1 0 -15 0zM412.19 -21.65 a7.5 7.5 0 1 0 15 0 a7.5 7.5 0 1 0 -15 0zM477.15 15.85 a7.5 7.5 0 1 0 15 0 a7.5 7.5 0 1 0 -15 0zM477.15 90.85 a7.5 7.5 0 1 0 15 0 a7.5 7.5 0 1 0 -15 0zM412.19 128.35 a7.5 7.5 0 1 0 15 0 a7.5 7.5 0 1 0 -15 0zM412.19 203.35 a7.5 7.5 0 1 0 15 0 a7.5 7.5 0 1 0 -15 0zM477.15 240.85 a7.5 7.5 0 1 0 15 0 a7.5 7.5 0 1 0 -15 0zM477.15 315.85 a7.5 7.5 0 1 0 15 0 a7.5 7.5 0 1 0 -15 0zM412.19 353.35 a7.5 7.5 0 1 0 15 0 a7.5 7.5 0 1 0 -15 0zM347.24 315.85 a7.5 7.5 0 1 0 15 0 a7.5 7.5 0 1 0 -15 0zM347.24 240.85 a7.5 7.5 0 1 0 15 0 a7.5 7.5 0 1 0 -15 0zM542.1 203.35 a7.5 7.5 0 1 0 15 0 a7.5 7.5 0 1 0 -15 0zM607.05 240.85 a7.5 7.5 0 1 0 15 0 a7.5 7.5 0 1 0 -15 0zM607.05 315.85 a7.5 7.5 0 1 0 15 0 a7.5 7.5 0 1 0 -15 0zM542.1 353.35 a7.5 7.5 0 1 0 15 0 a7.5 7.5 0 1 0 -15 0zM607.05 540.85 a7.5 7.5 0 1 0 15 0 a7.5 7.5 0 1 0 -15 0zM672.01 578.35 a7.5 7.5 0 1 0 15 0 a7.5 7.5 0 1 0 -15 0zM672.01 653.35 a7.5 7.5 0 1 0 15 0 a7.5 7.5 0 1 0 -15 0zM607.05 690.85 a7.5 7.5 0 1 0 15 0 a7.5 7.5 0 1 0 -15 0zM542.1 653.35 a7.5 7.5 0 1 0 15 0 a7.5 7.5 0 1 0 -15 0zM542.1 578.35 a7.5 7.5 0 1 0 15 0 a7.5 7.5 0 1 0 -15 0zM736.96 540.85 a7.5 7.5 0 1 0 15 0 a7.5 7.5 0 1 0 -15 0zM801.92 578.35 a7.5 7.5 0 1 0 15 0 a7.5 7.5 0 1 0 -15 0zM801.92 653.35 a7.5 7.5 0 1 0 15 0 a7.5 7.5 0 1 0 -15 0zM736.96 690.85 a7.5 7.5 0 1 0 15 0 a7.5 7.5 0 1 0 -15 0zM801.91 203.35 a7.5 7.5 0 1 0 15 0 a7.5 7.5 0 1 0 -15 0zM866.87 240.85 a7.5 7.5 0 1 0 15 0 a7.5 7.5 0 1 0 -15 0zM866.87 315.85 a7.5 7.5 0 1 0 15 0 a7.5 7.5 0 1 0 -15 0zM801.91 353.35 a7.5 7.5 0 1 0 15 0 a7.5 7.5 0 1 0 -15 0zM736.96 315.85 a7.5 7.5 0 1 0 15 0 a7.5 7.5 0 1 0 -15 0zM736.96 240.85 a7.5 7.5 0 1 0 15 0 a7.5 7.5 0 1 0 -15 0zM866.87 540.85 a7.5 7.5 0 1 0 15 0 a7.5 7.5 0 1 0 -15 0zM931.82 578.35 a7.5 7.5 0 1 0 15 0 a7.5 7.5 0 1 0 -15 0zM931.82 653.35 a7.5 7.5 0 1 0 15 0 a7.5 7.5 0 1 0 -15 0zM866.87 690.85 a7.5 7.5 0 1 0 15 0 a7.5 7.5 0 1 0 -15 0zM801.91 653.35 a7.5 7.5 0 1 0 15 0 a7.5 7.5 0 1 0 -15 0zM801.91 578.35 a7.5 7.5 0 1 0 15 0 a7.5 7.5 0 1 0 -15 0zM931.82 -21.65 a7.5 7.5 0 1 0 15 0 a7.5 7.5 0 1 0 -15 0zM996.78 15.85 a7.5 7.5 0 1 0 15 0 a7.5 7.5 0 1 0 -15 0zM996.78 90.85 a7.5 7.5 0 1 0 15 0 a7.5 7.5 0 1 0 -15 0zM931.82 128.35 a7.5 7.5 0 1 0 15 0 a7.5 7.5 0 1 0 -15 0zM866.87 90.85 a7.5 7.5 0 1 0 15 0 a7.5 7.5 0 1 0 -15 0zM866.87 15.85 a7.5 7.5 0 1 0 15 0 a7.5 7.5 0 1 0 -15 0zM996.78 315.85 a7.5 7.5 0 1 0 15 0 a7.5 7.5 0 1 0 -15 0zM1061.73 353.35 a7.5 7.5 0 1 0 15 0 a7.5 7.5 0 1 0 -15 0zM1061.73 428.35 a7.5 7.5 0 1 0 15 0 a7.5 7.5 0 1 0 -15 0zM996.78 465.85 a7.5 7.5 0 1 0 15 0 a7.5 7.5 0 1 0 -15 0zM931.82 428.35 a7.5 7.5 0 1 0 15 0 a7.5 7.5 0 1 0 -15 0zM931.82 353.35 a7.5 7.5 0 1 0 15 0 a7.5 7.5 0 1 0 -15 0zM1126.68 90.85 a7.5 7.5 0 1 0 15 0 a7.5 7.5 0 1 0 -15 0zM1191.64 128.35 a7.5 7.5 0 1 0 15 0 a7.5 7.5 0 1 0 -15 0zM1191.64 203.35 a7.5 7.5 0 1 0 15 0 a7.5 7.5 0 1 0 -15 0zM1126.68 240.85 a7.5 7.5 0 1 0 15 0 a7.5 7.5 0 1 0 -15 0zM1061.73 203.35 a7.5 7.5 0 1 0 15 0 a7.5 7.5 0 1 0 -15 0zM1061.73 128.35 a7.5 7.5 0 1 0 15 0 a7.5 7.5 0 1 0 -15 0zM1126.68 315.85 a7.5 7.5 0 1 0 15 0 a7.5 7.5 0 1 0 -15 0zM996.78 240.85 a7.5 7.5 0 1 0 15 0 a7.5 7.5 0 1 0 -15 0zM1191.64 -21.65 a7.5 7.5 0 1 0 15 0 a7.5 7.5 0 1 0 -15 0zM1256.59 15.85 a7.5 7.5 0 1 0 15 0 a7.5 7.5 0 1 0 -15 0zM1256.59 90.85 a7.5 7.5 0 1 0 15 0 a7.5 7.5 0 1 0 -15 0zM1126.68 15.85 a7.5 7.5 0 1 0 15 0 a7.5 7.5 0 1 0 -15 0zM1321.54 128.35 a7.5 7.5 0 1 0 15 0 a7.5 7.5 0 1 0 -15 0zM1321.54 203.35 a7.5 7.5 0 1 0 15 0 a7.5 7.5 0 1 0 -15 0zM1256.59 240.85 a7.5 7.5 0 1 0 15 0 a7.5 7.5 0 1 0 -15 0zM1321.55 203.35 a7.5 7.5 0 1 0 15 0 a7.5 7.5 0 1 0 -15 0zM1386.5 240.85 a7.5 7.5 0 1 0 15 0 a7.5 7.5 0 1 0 -15 0zM1386.5 315.85 a7.5 7.5 0 1 0 15 0 a7.5 7.5 0 1 0 -15 0zM1321.55 353.35 a7.5 7.5 0 1 0 15 0 a7.5 7.5 0 1 0 -15 0zM1256.59 315.85 a7.5 7.5 0 1 0 15 0 a7.5 7.5 0 1 0 -15 0zM1321.55 428.35 a7.5 7.5 0 1 0 15 0 a7.5 7.5 0 1 0 -15 0zM1386.5 465.85 a7.5 7.5 0 1 0 15 0 a7.5 7.5 0 1 0 -15 0zM1386.5 540.85 a7.5 7.5 0 1 0 15 0 a7.5 7.5 0 1 0 -15 0zM1321.55 578.35 a7.5 7.5 0 1 0 15 0 a7.5 7.5 0 1 0 -15 0zM1256.59 540.85 a7.5 7.5 0 1 0 15 0 a7.5 7.5 0 1 0 -15 0zM1256.59 465.85 a7.5 7.5 0 1 0 15 0 a7.5 7.5 0 1 0 -15 0zM1516.41 90.85 a7.5 7.5 0 1 0 15 0 a7.5 7.5 0 1 0 -15 0zM1581.36 128.35 a7.5 7.5 0 1 0 15 0 a7.5 7.5 0 1 0 -15 0zM1581.36 203.35 a7.5 7.5 0 1 0 15 0 a7.5 7.5 0 1 0 -15 0zM1516.41 240.85 a7.5 7.5 0 1 0 15 0 a7.5 7.5 0 1 0 -15 0zM1451.45 203.35 a7.5 7.5 0 1 0 15 0 a7.5 7.5 0 1 0 -15 0zM1451.45 128.35 a7.5 7.5 0 1 0 15 0 a7.5 7.5 0 1 0 -15 0z" fill="#2e8894"></path><path d="M14.88 120.99L58.18 145.99L58.18 195.99L14.88 220.99L-28.42 195.99L-28.42 145.99zM58.18 195.99L101.48 220.99L101.48 270.99L58.18 295.99L14.88 270.99L14.88 220.99zM58.18 345.99L101.48 370.99L101.48 420.99L58.18 445.99L14.88 420.99L14.88 370.99zM144.79 195.99L188.09 220.99L188.09 270.99L144.79 295.99L101.48 270.99L101.48 220.99zM101.48 270.99L144.79 295.99L144.79 345.99L101.48 370.99L58.18 345.99L58.18 295.99zM144.79 345.99L188.09 370.99L188.09 420.99L144.79 445.99L101.48 420.99L101.48 370.99zM188.09 120.99L231.39 145.99L231.39 195.99L188.09 220.99L144.79 195.99L144.79 145.99zM188.09 270.99L231.39 295.99L231.39 345.99L188.09 370.99L144.79 345.99L144.79 295.99zM231.39 495.99L274.69 520.99L274.69 570.99L231.39 595.99L188.09 570.99L188.09 520.99zM318 45.99L361.3 70.99L361.3 120.99L318 145.99L274.69 120.99L274.69 70.99zM274.69 270.99L318 295.99L318 345.99L274.69 370.99L231.39 345.99L231.39 295.99zM274.69 420.99L318 445.99L318 495.99L274.69 520.99L231.39 495.99L231.39 445.99zM318 495.99L361.3 520.99L361.3 570.99L318 595.99L274.69 570.99L274.69 520.99zM404.6 45.99L447.91 70.99L447.91 120.99L404.6 145.99L361.3 120.99L361.3 70.99zM361.3 270.99L404.6 295.99L404.6 345.99L361.3 370.99L318 345.99L318 295.99zM447.91 -29.01L491.21 -4.01L491.21 45.99L447.91 70.99L404.6 45.99L404.6 -4.01zM577.81 45.99L621.12 70.99L621.12 120.99L577.81 145.99L534.51 120.99L534.51 70.99zM577.81 495.99L621.12 520.99L621.12 570.99L577.81 595.99L534.51 570.99L534.51 520.99zM621.12 -29.01L664.42 -4.01L664.42 45.99L621.12 70.99L577.81 45.99L577.81 -4.01zM664.42 345.99L707.72 370.99L707.72 420.99L664.42 445.99L621.12 420.99L621.12 370.99zM664.42 495.99L707.72 520.99L707.72 570.99L664.42 595.99L621.12 570.99L621.12 520.99zM751.02 45.99L794.33 70.99L794.33 120.99L751.02 145.99L707.72 120.99L707.72 70.99zM707.72 120.99L751.02 145.99L751.02 195.99L707.72 220.99L664.42 195.99L664.42 145.99zM794.33 -29.01L837.63 -4.01L837.63 45.99L794.33 70.99L751.02 45.99L751.02 -4.01zM794.33 120.99L837.63 145.99L837.63 195.99L794.33 220.99L751.02 195.99L751.02 145.99zM837.63 495.99L880.93 520.99L880.93 570.99L837.63 595.99L794.33 570.99L794.33 520.99zM880.93 -29.01L924.23 -4.01L924.23 45.99L880.93 70.99L837.63 45.99L837.63 -4.01zM880.93 120.99L924.23 145.99L924.23 195.99L880.93 220.99L837.63 195.99L837.63 145.99zM967.54 270.99L1010.84 295.99L1010.84 345.99L967.54 370.99L924.23 345.99L924.23 295.99zM967.54 420.99L1010.84 445.99L1010.84 495.99L967.54 520.99L924.23 495.99L924.23 445.99zM1054.14 120.99L1097.44 145.99L1097.44 195.99L1054.14 220.99L1010.84 195.99L1010.84 145.99zM1054.14 270.99L1097.44 295.99L1097.44 345.99L1054.14 370.99L1010.84 345.99L1010.84 295.99zM1184.05 195.99L1227.35 220.99L1227.35 270.99L1184.05 295.99L1140.75 270.99L1140.75 220.99zM1313.96 -29.01L1357.26 -4.01L1357.26 45.99L1313.96 70.99L1270.65 45.99L1270.65 -4.01zM1313.96 270.99L1357.26 295.99L1357.26 345.99L1313.96 370.99L1270.65 345.99L1270.65 295.99zM1313.96 420.99L1357.26 445.99L1357.26 495.99L1313.96 520.99L1270.65 495.99L1270.65 445.99zM1357.26 495.99L1400.56 520.99L1400.56 570.99L1357.26 595.99L1313.96 570.99L1313.96 520.99zM1400.56 270.99L1443.86 295.99L1443.86 345.99L1400.56 370.99L1357.26 345.99L1357.26 295.99zM1443.86 495.99L1487.17 520.99L1487.17 570.99L1443.86 595.99L1400.56 570.99L1400.56 520.99z" stroke="#2e8894" stroke-width="1"></path></g><defs><mask id="SvgjsMask1001"><rect width="1440" height="560" fill="#2e8894"></rect></mask></defs></svg>