<!DOCTYPE svg PUBLIC "-//W3C//DTD SVG 1.1//EN" "http://www.w3.org/Graphics/SVG/1.1/DTD/svg11.dtd">
<!-- Uploaded to: SVG Repo, www.svgrepo.com, Transformed by: SVG Repo Mixer Tools -->
<svg width="64px" height="64px" viewBox="0 0 40 40" fill="none" xmlns="http://www.w3.org/2000/svg" stroke="#c8b26d">
<g id="SVGRepo_bgCarrier" stroke-width="0"/>
<g id="SVGRepo_tracerCarrier" stroke-linecap="round" stroke-linejoin="round"/>
<g id="SVGRepo_iconCarrier"> <rect width="40" height="40" rx="8" fill="#c8b26d" fill-opacity="0.4"/> <path d="M20 7.86667C13.2987 7.86667 7.86667 13.2987 7.86667 20C7.86667 26.7013 13.2987 32.1333 20 32.1333C26.7013 32.1333 32.1333 26.7013 32.1333 20C32.1333 13.2987 26.7013 7.86667 20 7.86667Z" fill="white"/> <path d="M20 14.4C20.5155 14.4 20.9333 14.8179 20.9333 15.3333V20.0476L24.1225 22.8822C24.5078 23.2247 24.5425 23.8147 24.2 24.2C23.8575 24.5853 23.2675 24.62 22.8822 24.2775L19.0667 20.8857V15.3333C19.0667 14.8179 19.4845 14.4 20 14.4Z" fill="#c8b26d"/> </g>
</svg>